<?xml version="1.0" ?><!DOCTYPE svg  PUBLIC '-//W3C//DTD SVG 1.1//EN'  'http://www.w3.org/Graphics/SVG/1.1/DTD/svg11.dtd'><svg height="100%" style="fill-rule:evenodd;clip-rule:evenodd;stroke-linejoin:round;stroke-miterlimit:2;" version="1.1" viewBox="0 0 512 512" width="100%" xml:space="preserve" xmlns="http://www.w3.org/2000/svg" xmlns:serif="http://www.serif.com/" xmlns:xlink="http://www.w3.org/1999/xlink"><g transform="matrix(1.04839,0,0,1.06716,-11.3548,-15.2836)"><ellipse cx="255.015" cy="254.21" rx="244.185" ry="239.888" style="fill:rgb(137,216,255);"/><path d="M255.015,14.322C389.785,14.322 499.2,121.812 499.2,254.21C499.2,386.608 389.785,494.098 255.015,494.098C120.246,494.098 10.831,386.608 10.831,254.21C10.831,121.812 120.246,14.322 255.015,14.322ZM255.015,21.818C385.573,21.818 491.569,125.949 491.569,254.21C491.569,382.47 385.573,486.601 255.015,486.601C124.458,486.601 18.462,382.47 18.462,254.21C18.462,125.949 124.458,21.818 255.015,21.818Z" style="fill:white;"/></g><g transform="matrix(1,0,0,1,-1.16,2.60336)"><path d="M113.799,325.261C101.49,302.346 94.506,276.15 94.506,248.332C94.506,158.533 167.284,85.627 256.925,85.627C346.567,85.627 419.344,158.533 419.344,248.332C419.344,338.132 346.567,411.037 256.925,411.037C231.586,411.037 207.595,405.212 186.22,394.83L186.221,394.831L103.033,411.037L113.799,325.261L113.799,325.261ZM136.2,375.467L190.874,365.157L190.874,365.156C210.276,376.117 232.674,382.371 256.521,382.371C330.373,382.371 390.332,322.381 390.332,248.49C390.332,174.598 330.373,114.608 256.521,114.608C182.669,114.608 122.711,174.598 122.711,248.49C122.711,274.854 130.344,299.449 143.514,320.175L143.514,320.174L136.2,375.467Z" style="fill:white;"/></g><g transform="matrix(1,0,0,1,-1.16,2.60336)"><path d="M338.062,290.822C336.523,287.095 314.464,275.317 302.333,269.173C299.777,268.355 296.181,267.876 294.284,269.774L277.464,288.155C275.497,289.211 273.865,289.261 272.539,288.395C248.21,276.143 229.376,258.678 217.542,234.573C216.611,233.301 216.631,231.84 217.301,230.248L229.435,216.732C231.999,213.489 232.759,209.524 230.517,204.358L220.065,175.104C218.823,171.74 217.101,169.498 214.899,168.376C209.157,166.834 201.165,166.772 196.566,169.41C172.257,183.349 170.151,213.102 188.512,245.265C201.287,267.644 217.32,288.344 240.67,305.275C256.643,315.113 273.473,322.668 291.369,327.38C298.084,328.291 303.824,328.031 308.937,327.02C338.648,321.144 339.136,293.423 338.062,290.822Z" style="fill:white;"/></g></svg>